<svg xmlns="http://www.w3.org/2000/svg" viewBox="0 0 200 200" role="img" aria-label="Английский Маяк">
  <defs>
    <linearGradient id="sky" x1="0" y1="0" x2="0" y2="1">
      <stop offset="0%" stop-color="#488DA0"/>
      <stop offset="55%" stop-color="#214149"/>
      <stop offset="100%" stop-color="#1A333A"/>
    </linearGradient>
    <linearGradient id="beamR" x1="0" y1="0" x2="1" y2="0">
      <stop offset="0%" stop-color="#C19B4F" stop-opacity="0.95"/>
      <stop offset="100%" stop-color="#F3D593" stop-opacity="0.15"/>
    </linearGradient>
    <linearGradient id="beamL" x1="1" y1="0" x2="0" y2="0">
      <stop offset="0%" stop-color="#C19B4F" stop-opacity="0.95"/>
      <stop offset="100%" stop-color="#F3D593" stop-opacity="0.15"/>
    </linearGradient>
    <clipPath id="disc"><circle cx="100" cy="100" r="96"/></clipPath>
  </defs>
  <circle cx="100" cy="100" r="96" fill="url(#sky)"/>
  <g clip-path="url(#disc)">
    <polygon points="100,54 2,36 2,72" fill="url(#beamL)"/>
    <polygon points="100,54 198,36 198,72" fill="url(#beamR)"/>
    <path d="M0 146 C36 136, 64 158, 100 148 C136 138, 164 158, 200 146 L200 200 L0 200 Z" fill="#1A333A"/>
    <path d="M12 160 C44 152, 72 170, 100 160 C128 150, 156 168, 188 158" fill="none" stroke="#468A9D" stroke-width="2.4" stroke-linecap="round"/>
    <path d="M24 170 C52 164, 80 178, 108 170 C136 162, 158 176, 180 168" fill="none" stroke="#A5D2DF" stroke-width="1.7" stroke-linecap="round" opacity="0.75"/>
    <path d="M58 152 L72 138 L88 148 L100 136 L114 148 L128 138 L144 152 L128 160 L72 160 Z" fill="#214149"/>
    <path d="M87 152 L92 80 L108 80 L113 152 Z" fill="#FFFFFF"/>
    <rect x="93" y="88" width="5.2" height="8" fill="#468A9D"/>
    <rect x="101.8" y="88" width="5.2" height="8" fill="#468A9D"/>
    <rect x="93" y="104" width="5.2" height="8" fill="#468A9D"/>
    <rect x="101.8" y="104" width="5.2" height="8" fill="#468A9D"/>
    <rect x="93" y="120" width="5.2" height="8" fill="#468A9D"/>
    <rect x="101.8" y="120" width="5.2" height="8" fill="#468A9D"/>
    <rect x="84" y="74" width="32" height="7.5" fill="#FFFFFF"/>
    <rect x="86" y="72" width="28" height="3" fill="#A8B2BB"/>
    <rect x="91" y="54" width="18" height="18" fill="#F3D593"/>
    <rect x="93.5" y="56" width="5" height="14" fill="#FFFFFF" opacity="0.9"/>
    <rect x="101.5" y="56" width="5" height="14" fill="#FFFFFF" opacity="0.5"/>
    <polygon points="88,54 100,42 112,54" fill="#214149"/>
    <rect x="98" y="38" width="4" height="7" fill="#C19B4F"/>
  </g>
  <circle cx="100" cy="100" r="96" fill="none" stroke="#214149" stroke-width="3"/>
</svg>
